<svg width="567" height="481" viewBox="0 0 567 481" fill="none" xmlns="http://www.w3.org/2000/svg">
<path fill-rule="evenodd" clip-rule="evenodd" d="M279.477 36.0439C320.079 43.1037 359.819 38.1632 398.824 52.5618C454.305 73.0426 523.377 80.1829 552.264 136.743C581.614 194.211 561.533 267.976 540.39 329.75C520.032 389.232 489.805 453.185 436.283 475.609C385.05 497.074 333.611 448.118 279.477 439.064C236.798 431.925 194.157 444.56 153.542 428.318C100.219 406.995 37.0641 388.688 12.0306 332.113C-13.5403 274.323 6.38759 204.214 27.9213 144.421C48.364 87.6573 78.3292 27.819 129.569 5.74367C178.119 -15.1731 228.04 27.1 279.477 36.0439Z" fill="#42E2B8"/>
</svg>
