<svg width="476" height="501" viewBox="0 0 476 501" fill="none" xmlns="http://www.w3.org/2000/svg">
<path fill-rule="evenodd" clip-rule="evenodd" d="M426.452 134.857C453.374 184.658 482.631 239.133 474.09 296.466C465.201 356.133 424.244 403.359 380.993 439.995C338.157 476.28 286.965 499.387 233.139 500.564C179.865 501.729 127.631 481.991 84.9705 446.468C43.721 412.119 4.52144 364.372 0.912329 307.187C-2.50256 253.079 53.2681 218.627 67.3127 166.686C81.0368 115.93 43.7505 45.797 80.6533 12.2785C117.332 -21.0361 171.18 24.9866 218.354 29.4962C257.623 33.25 297.658 18.289 333.532 36.4522C373.429 56.6521 403.86 93.0635 426.452 134.857Z" fill="#8884FF"/>
</svg>
